/* XPM */
static char *_523344001196[] = {
/* columns rows colors chars-per-pixel */
"32 32 57 1 ",
"  c #F6A724",
". c #F6A926",
"X c #FAAC26",
"o c #F6AD29",
"O c #F9AE29",
"+ c #F7B22E",
"@ c #FDB42C",
"# c #FFB92E",
"$ c #F7B531",
"% c #F8B531",
"& c #F7B933",
"* c #FABB35",
"= c #F9BE38",
"- c #FFC137",
"; c #FAC33C",
": c #FFC93E",
"> c #FAC741",
", c #FBCB43",
"< c #FBCF49",
"1 c #FED246",
"2 c #FDD349",
"3 c #FFDB4B",
"4 c #0000FE",
"5 c #2550FF",
"6 c #3A5BFF",
"7 c #3B62FF",
"8 c #777CDF",
"9 c #4954EB",
"0 c #535AEB",
"q c #5F66E9",
"w c #4962FC",
"e c #416FFF",
"r c #557FFF",
"t c #747AE0",
"y c #6474F4",
"u c #6A7CFF",
"i c #6493FF",
"p c #6B9EFF",
"a c #7AAFFF",
"s c #8E92DE",
"d c #9A9DDA",
"f c #AFB1D9",
"g c #8C8FE3",
"h c #80B5FF",
"j c #BBBDE3",
"k c #C1C2D5",
"l c #C9CAD3",
"z c #CFD0DA",
"x c #D5D6D5",
"c c #DCDCD6",
"v c #D5D5DA",
"b c #D9D9D9",
"n c #E0E0DF",
"m c #DDDEE1",
"M c #E2E2E2",
"N c #E9E9EA",
"B c None",
/* pixels */
"BBBBBBBBBBBB<221222BBBBBBBBBBBBB",
"BBBBBBBBB221332<BBBBBBBBBBBBBBBB",
"BBBBBBBB<313<2BBBBBBBBBBBBBBBBBB",
"BBBBBB,21,1,BBBBBBBBBBBBBBBBBBBB",
"BBBBB,11,1,BBBBBBBBBBBBBBBBBBBBB",
"BBBB,1,,,,BBBBBBBBBBBBBBBBBBBBBB",
"BBB,1,,,,BBBBBBBBBBBBBBBbbbMNBBB",
"BBB1;,;,>BBBBBBBBBBBBbcbMMbbbBBB",
"BB,:;>,>BBBBBBBBBBBBbnz89fcMbBBB",
"B;1;;;;;BBBBBBBBBBBbncg440lnBBBB",
"B;:;;;:;BBBBBBBBbbbMbcd44qvbBBBB",
"B;;;;;:;BBBBBBBbMMcbbbxstkbBBBBB",
";;;;=;:BBBBBBBbmbbbbxbbxxMbBBBBB",
"-;====;BBBBBBBBBbbxbbbbbMbBBBBBB",
"-=====-BBBBBBBByvbbbbbbMbBBBBBBB",
"===&==-=BBBBBB5ubcbbbbbBBBBBBBBB",
"***&**-*BBBBBrewjzmbxMBBBBBBBBBB",
"&=&**=**BBBBBir76yjbNbBBBBBBBBBB",
"&**&*$&*&BBBBair7BBbbBBBBBBBBBBB",
"%*&$&%&*&BBBBhpBBBBbBBBBBBBBBBB&",
"B*%%%%$$*%BBBBBBBBBBBBBBBBBBBB%B",
"B$%$%%+$@%BBBBBBBBBBBBBBBBBBB%%B",
"B@*+%++++@+BBBBBBBBBBBBBBBBBB*$B",
"BB+#++++++*+$BBBBBBBBBBBBBB$#+BB",
"BB+*++O+++++@+BBBBBBBBBBBB+@*+BB",
"BBBo@+ooooo+o@+oOBBBBBB++@@@OBBB",
"BBBBX@ooooooOoo@#@Oooo@#@O@oBBBB",
"BBBBBo@oooooooooooOO+OoO.@.BBBBB",
"BBBBBBo@XO.oo.X..o.Oo.oX@XBBBBBB",
"BBBBBBBo.@X..........X@..BBBBBBB",
"BBBBBBBBB. OX... ...X..BBBBBBBBB",
"BBBBBBBBBBBB        BBBBBBBBBBBB"
};
