/* XPM */
static char *_523343996975[] = {
/* columns rows colors chars-per-pixel */
"64 64 107 2 ",
"   c #F5A725",
".  c #F6A926",
"X  c #FCAC26",
"o  c #F6AD2A",
"O  c #F9AE29",
"+  c #FFB027",
"@  c #F7B22D",
"#  c #FCB42C",
"$  c #FFB92E",
"%  c #F7B631",
"&  c #F9B631",
"*  c #F7B933",
"=  c #F9BB35",
"-  c #F9BE39",
";  c #FFC135",
":  c #FFC836",
">  c #F9C33C",
",  c #FFC93E",
"<  c #F9C740",
"1  c #FBCC43",
"2  c #FACF49",
"3  c #FED246",
"4  c #FDD249",
"5  c #FFDA4B",
"6  c #0000F4",
"7  c #0000FE",
"8  c #0009FF",
"9  c #0114FF",
"0  c #0B17FF",
"q  c #0418FF",
"w  c #0D1BFF",
"e  c #141FFF",
"r  c #0223EF",
"t  c #0B23EC",
"y  c #1F30E9",
"u  c #0020FF",
"i  c #0029FF",
"p  c #1721FF",
"a  c #0034FF",
"s  c #073FFF",
"d  c #2535EA",
"f  c #0B41FF",
"g  c #1046FF",
"h  c #204CFF",
"j  c #2E4BFD",
"k  c #3352FF",
"l  c #3759FF",
"z  c #3A5CFF",
"x  c #3E62FF",
"c  c #6C72DC",
"v  c #777CD4",
"b  c #787ED3",
"n  c #4D55E4",
"m  c #525BE2",
"M  c #4266FF",
"N  c #466CFF",
"B  c #4A72FF",
"V  c #527DFF",
"C  c #6575F6",
"Z  c #6778F4",
"A  c #7D82D6",
"S  c #5681FF",
"D  c #5A85FF",
"F  c #5D89FF",
"G  c #618FFF",
"H  c #6493FF",
"J  c #6A9AFF",
"K  c #6FA2FF",
"L  c #70A3FF",
"P  c #75A9FF",
"I  c #7BB0FF",
"U  c #868BD4",
"Y  c #888CD0",
"T  c #9397D1",
"R  c #A8AACF",
"E  c #B4B6CE",
"W  c #BCBECD",
"Q  c #A7A8D3",
"!  c #BBBCD0",
"~  c #8891EA",
"^  c #9197EE",
"/  c #939CEB",
"(  c #8791F7",
")  c #99A0E8",
"_  c #9AA0F0",
"`  c #80B6FF",
"'  c #83BBFF",
"]  c #A6AAE5",
"[  c #BFC0CF",
"{  c #8BC5FF",
"}  c #C4C5CD",
"|  c #C8C9CF",
" . c #D1D2CF",
".. c #CDCDD0",
"X. c #CBCED9",
"o. c #CFD0D1",
"O. c #D6D6D5",
"+. c #D7D8D7",
"@. c #DADAD6",
"#. c #D7D7D8",
"$. c #D7D8D8",
"%. c #D9D9D9",
"&. c #E0E0D6",
"*. c #E1E1DB",
"=. c #E2E2E2",
"-. c gray93",
";. c None",
/* pixels */
";.;.;.;.;.;.;.;.;.;.;.;.;.;.;.;.;.;.;.;.;.;.;.;.;.;.4 4 4 4 4 4 4 2 4 4 4 4 ;.;.;.;.;.;.;.;.;.;.;.;.;.;.;.;.;.;.;.;.;.;.;.;.;.;.",
";.;.;.;.;.;.;.;.;.;.;.;.;.;.;.;.;.;.;.;.;.;.4 4 4 5 4 3 3 4 4 5 5 4 4 4 4 4 4 ;.;.;.;.;.;.;.;.;.;.;.;.;.;.;.;.;.;.;.;.;.;.;.;.;.",
";.;.;.;.;.;.;.;.;.;.;.;.;.;.;.;.;.;.;.;.4 3 5 5 3 4 4 2 3 4 3 4 ;.;.;.;.;.;.;.;.;.;.;.;.;.;.;.;.;.;.;.;.;.;.;.;.;.;.;.;.;.;.;.;.",
";.;.;.;.;.;.;.;.;.;.;.;.;.;.;.;.;.4 4 3 5 1 4 2 2 2 3 4 4 2 ;.;.;.;.;.;.;.;.;.;.;.;.;.;.;.;.;.;.;.;.;.;.;.;.;.;.;.;.;.;.;.;.;.;.",
";.;.;.;.;.;.;.;.;.;.;.;.;.;.;.;.2 5 3 4 1 4 4 1 2 4 3 4 ;.;.;.;.;.;.;.;.;.;.;.;.;.;.;.;.;.;.;.;.;.;.;.;.;.;.;.;.;.;.;.;.;.;.;.;.",
";.;.;.;.;.;.;.;.;.;.;.;.;.;.2 3 4 1 4 1 1 1 2 3 4 2 ;.;.;.;.;.;.;.;.;.;.;.;.;.;.;.;.;.;.;.;.;.;.;.;.;.;.;.;.;.;.;.;.;.;.;.;.;.;.",
";.;.;.;.;.;.;.;.;.;.;.;.;.4 5 1 1 2 1 4 2 1 2 4 1 ;.;.;.;.;.;.;.;.;.;.;.;.;.;.;.;.;.;.;.;.;.;.;.;.;.;.;.;.;.;.;.;.;.;.;.;.;.;.;.",
";.;.;.;.;.;.;.;.;.;.;.4 1 3 1 1 2 1 1 1 1 4 3 1 ;.;.;.;.;.;.;.;.;.;.;.;.;.;.;.;.;.;.;.;.;.;.;.;.;.;.;.;.;.;.;.;.;.;.;.;.;.;.;.;.",
";.;.;.;.;.;.;.;.;.;.1 3 3 1 1 1 1 1 1 1 1 1 ;.;.;.;.;.;.;.;.;.;.;.;.;.;.;.;.;.;.;.;.;.;.;.;.;.;.;.;.;.;.;.;.;.;.;.;.;.;.;.;.;.;.",
";.;.;.;.;.;.;.;.;.1 3 1 1 1 1 1 1 1 1 < 3 1 ;.;.;.;.;.;.;.;.;.;.;.;.;.;.;.;.;.;.;.;.;.;.;.;.;.;.;.;.;.;.;.;.;.;.;.;.;.;.;.;.;.;.",
";.;.;.;.;.;.;.;.1 3 1 1 1 1 1 1 1 1 1 3 1 ;.;.;.;.;.;.;.;.;.;.;.;.;.;.;.;.;.;.;.;.;.;.;.;.;.;.;.;.;.;.;.;.;.;.;.;.;.;.;.;.;.;.;.",
";.;.;.;.;.;.;.< 1 1 1 1 1 < 1 < 1 1 3 1 ;.;.;.;.;.;.;.;.;.;.;.;.;.;.;.;.;.;.;.;.;.;.;.;.;.;.;.;.;.;.;.;.;.;.%.%.%.%.%.;.;.;.;.;.",
";.;.;.;.;.;.;., 1 1 < 1 < < < 1 1 1 1 ;.;.;.;.;.;.;.;.;.;.;.;.;.;.;.;.;.;.;.;.;.;.;.;.;.;.;.;.;.;.%.%.%.%.%.%.=.=.-.#.;.;.;.;.;.",
";.;.;.;.;.;.1 3 < 1 < < < 1 1 < , 1 ;.;.;.;.;.;.;.;.;.;.;.;.;.;.;.;.;.;.;.;.;.;.;.;.;.;.;.;.%.%.=.=.%.%.%.%.%.%.O.=.%.;.;.;.;.;.",
";.;.;.;.;.1 3 > < < < < < 1 < < 3 1 ;.;.;.;.;.;.;.;.;.;.;.;.;.;.;.;.;.;.;.;.;.;.;.;.;.;.%.%.-.%.%.%.%.%.%.#.%.%.#.%.;.;.;.;.;.;.",
";.;.;.;.;.1 , 1 < < < < < < < < < ;.;.;.;.;.;.;.;.;.;.;.;.;.;.;.;.;.;.;.;.;.;.;.;.;.%.%.=.%.$.O.O.%.@.%.#.%.%.#.=.%.;.;.;.;.;.;.",
";.;.;.;.< 1 , > < < < > < < > 1 1 ;.;.;.;.;.;.;.;.;.;.;.;.;.;.;.;.;.;.;.;.;.;.;.%.%.*.%.#.#.E A c U [ %.%.%.O.%.=.%.;.;.;.;.;.;.",
";.;.;.;.1 > > 1 - < < < < > 1 > ;.;.;.;.;.;.;.;.;.;.;.;.;.;.;.;.;.;.;.;.;.;.;.%.=.%.%.%.#.R d 7 7 7 n [ %.O.%.%.%.;.;.;.;.;.;.;.",
";.;.;.1 1 < > > > < > < > > 1 > ;.;.;.;.;.;.;.;.;.;.;.;.;.;.;.;.;.;.;.;.;.;.%.=.%.%.#.%.| m 7 e w p 7 v O.%.%.=.%.;.;.;.;.;.;.;.",
";.;.;., > < > < < > < > < > 1 > ;.;.;.;.;.;.;.;.;.;.;.;.;.;.;.;.;.;.;.;.;.%.=.%.%.%.#.@.W r 9 q 9 w 7 n ..%.%.%.;.;.;.;.;.;.;.;.",
";.;.> , > > > > > > > < > > , ;.;.;.;.;.;.;.;.;.;.;.;.;.;.;.;.;.;.;.;.;.%.=.%.%.O.#.#.%.[ d 8 e 9 p 7 m O.+.%.%.;.;.;.;.;.;.;.;.",
";.;.> > > > > > - > > > > > , ;.;.;.;.;.;.;.;.;.;.;.;.;.;.;.;.;.%.%.%.%.%.@.%.%.%.%.%.%. .b 7 0 w 7 6 T +.%.=.;.;.;.;.;.;.;.;.;.",
";.> , > > > > > > > > > > > > ;.;.;.;.;.;.;.;.;.;.;.;.;.;.;.%.%.=.%.%.%.#.#.@.#.%.+.%.#.@.} c 6 6 t U | +.=.#.;.;.;.;.;.;.;.;.;.",
";.> , > > > > > > > - > > , > ;.;.;.;.;.;.;.;.;.;.;.;.;.;.%.=.%.%.%.%.%.#.%.%.%.+.#.#.#.#.@. .E Q W O.+.+.*.;.;.;.;.;.;.;.;.;.;.",
";.> , > > - > > > > - > - , > ;.;.;.;.;.;.;.;.;.;.;.;.;.%.=.%.%.%.#.%.#.#.#.+.%.+.%.#.#.+.%.%.@.+.+.%.%.=.%.;.;.;.;.;.;.;.;.;.;.",
";., = > - > - - - - > - - , - ;.;.;.;.;.;.;.;.;.;.;.;.%.%.%.*.%.%.+.%.%.+.%.%.+.%.#.+.%.+.#.#.#.%.#.%.=.%.;.;.;.;.;.;.;.;.;.;.;.",
";.> = > - - - - - > - - - , > ;.;.;.;.;.;.;.;.;.;.;.;.;.;.;.;.%.%.%.%.%.#.%.#.+.#.%.%.%.%.%.#.#.+.%.%.%.;.;.;.;.;.;.;.;.;.;.;.;.",
"- > = > - - > - - - - - - , - ;.;.;.;.;.;.;.;.;.;.;.;.;.;.;.;.;.%.%.%.%.@.+.#.%.%.%.O.%.#.+.+.%.%.*.%.;.;.;.;.;.;.;.;.;.;.;.;.;.",
"- > > = > = * > - - - - - > - ;.;.;.;.;.;.;.;.;.;.;.;.;.;.;.;.~ %.%.#.#.%.#.#.@.%.#.%.O.%.%.%.%.=.%.;.;.;.;.;.;.;.;.;.;.;.;.;.;.",
"- - = - - = > * - - - - * > - ;.;.;.;.;.;.;.;.;.;.;.;.;.;.j i ( %.@.#.%.%.#.%.%.%.%.#.%.%.%.%.=.O.;.;.;.;.;.;.;.;.;.;.;.;.;.;.;.",
"- - - - - - - > - - * - > > * ;.;.;.;.;.;.;.;.;.;.;.;.;.z k a / #.#.@.%.#.%.#.#.%.%.%.%.O.%.%.%.;.;.;.;.;.;.;.;.;.;.;.;.;.;.;.;.",
"= = = = = = * = * - - * * * > ;.;.;.;.;.;.;.;.;.;.;.;.;.M l f / #.#.+.#.#.%.@.#.%.%.%.%.%.%.;.;.;.;.;.;.;.;.;.;.;.;.;.;.;.;.;.;.",
"= = - = * - = = * - - - * - > ;.;.;.;.;.;.;.;.;.;.;.;.B B x h Z #.@.$.$.#.$.%.#.O.%.%.=.%.;.;.;.;.;.;.;.;.;.;.;.;.;.;.;.;.;.;.;.",
"= * - = * - - = * = * * - * ; - ;.;.;.;.;.;.;.;.;.;.;.S B N z k / X.@.*.*.*.#.%.%.%.#.%.%.;.;.;.;.;.;.;.;.;.;.;.;.;.;.;.;.;.;.;.",
"- = = * = - = = - * * = * = = = ;.;.;.;.;.;.;.;.;.;.H H V B M l g C ^ ) ] %.%.%.%.%.%.%.;.;.;.;.;.;.;.;.;.;.;.;.;.;.;.;.;.;.;.;.",
"* = * * * * = & * = = * = * = = ;.;.;.;.;.;.;.;.;.;.J H D V B M M s q 9 ;.;.%.=.%.%.=.%.;.;.;.;.;.;.;.;.;.;.;.;.;.;.;.;.;.;.;.;.",
"* = = * * & * * * * * * * * * = * ;.;.;.;.;.;.;.;.;.P J G S V N x z k ;.;.;.;.=.%.=.%.;.;.;.;.;.;.;.;.;.;.;.;.;.;.;.;.;.;.;.;.* ",
"= = * * * * * * & * * * & & * = = ;.;.;.;.;.;.;.;.' ' L J H D V B x ;.;.;.;.O.-.%.%.;.;.;.;.;.;.;.;.;.;.;.;.;.;.;.;.;.;.;.;.* * ",
";.- * * % * % * * * & & % * * & ; * ;.;.;.;.;.;.;.{ { I L H G S ;.;.;.;.;.;.%.-.%.;.;.;.;.;.;.;.;.;.;.;.;.;.;.;.;.;.;.;.;.;.* ;.",
";.& & * * % * & & & * & * % * % = * ;.;.;.;.;.;.;.;.;.;.;.;.;.;.;.;.;.;.;.;.%.;.;.;.;.;.;.;.;.;.;.;.;.;.;.;.;.;.;.;.;.;.;.& = ;.",
";.& & & = % % % % % % % % % % % & = & ;.;.;.;.;.;.;.;.;.;.;.;.;.;.;.;.;.;.;.;.;.;.;.;.;.;.;.;.;.;.;.;.;.;.;.;.;.;.;.;.;.;.& & ;.",
";.& ; & # % % % % % % % % % % % % # = & ;.;.;.;.;.;.;.;.;.;.;.;.;.;.;.;.;.;.;.;.;.;.;.;.;.;.;.;.;.;.;.;.;.;.;.;.;.;.;.;.& : = ;.",
";.;.& & % % % % % % % % @ @ % % % @ & & ;.;.;.;.;.;.;.;.;.;.;.;.;.;.;.;.;.;.;.;.;.;.;.;.;.;.;.;.;.;.;.;.;.;.;.;.;.;.;.& = & ;.;.",
";.;.% = @ % @ @ % % o % % % % @ % % % & & ;.;.;.;.;.;.;.;.;.;.;.;.;.;.;.;.;.;.;.;.;.;.;.;.;.;.;.;.;.;.;.;.;.;.;.;.;.;.& = @ ;.;.",
";.;.& & % @ % @ @ % @ @ @ % % @ @ % % O $ # ;.;.;.;.;.;.;.;.;.;.;.;.;.;.;.;.;.;.;.;.;.;.;.;.;.;.;.;.;.;.;.;.;.;.;.;.% @ $ % ;.;.",
";.;.;.@ & # @ % % @ @ % @ @ @ @ @ @ @ % @ & % ;.;.;.;.;.;.;.;.;.;.;.;.;.;.;.;.;.;.;.;.;.;.;.;.;.;.;.;.;.;.;.;.;.% & @ $ # ;.;.;.",
";.;.;.& & @ @ @ @ @ @ @ @ @ @ @ @ @ % @ @ @ $ @ @ ;.;.;.;.;.;.;.;.;.;.;.;.;.;.;.;.;.;.;.;.;.;.;.;.;.;.;.;.;.;.& $ @ @ $ # ;.;.;.",
";.;.;.;.# & o @ @ @ @ @ @ @ @ @ @ @ o @ @ @ @ @ & % ;.;.;.;.;.;.;.;.;.;.;.;.;.;.;.;.;.;.;.;.;.;.;.;.;.;.;.;.@ & @ @ = @ ;.;.;.;.",
";.;.;.;.;.$ O % o % o % o o @ @ @ @ o o % o % o @ # @ ;.;.;.;.;.;.;.;.;.;.;.;.;.;.;.;.;.;.;.;.;.;.;.;.;.@ o & @ @ @ $ ;.;.;.;.;.",
";.;.;.;.;.@ $ o @ o % o o % o o o % o % @ o o @ o % @ $ o ;.;.;.;.;.;.;.;.;.;.;.;.;.;.;.;.;.;.;.;.;.O @ $ # @ O o $ @ ;.;.;.;.;.",
";.;.;.;.;.;.@ @ o o o @ o % @ o @ o % o o o o o o @ O o $ # o o ;.;.;.;.;.;.;.;.;.;.;.;.;.;.;.;.@ O $ # o o o o @ O ;.;.;.;.;.;.",
";.;.;.;.;.;.;.+ o @ @ o o o o @ o o o o o @ % o o @ o o o O & $ @ o @ O ;.;.;.;.;.;.;.;.o @ o o $ @ @ o @ o @ o # ;.;.;.;.;.;.;.",
";.;.;.;.;.;.;.@ $ o o o o o o @ o o o o o o o o o o o o o o o o # # # + o o o o o O o o + $ # o o o o o o o o $ o ;.;.;.;.;.;.;.",
";.;.;.;.;.;.;.;.o $ o o o o o o o o o o o o o o o o o o o o o o o o o o O O # # # @ O O O o o o o o o o o o $ o ;.;.;.;.;.;.;.;.",
";.;.;.;.;.;.;.;.;.o $ o o . o o o . o o o o o o o o o o o o o o o o o o o o o o o . o o o . o o o o o o o # O ;.;.;.;.;.;.;.;.;.",
";.;.;.;.;.;.;.;.;.;.o # o o o . o o . o o o   o o o o o o o o o . . o o . o o o . o o o o o o . o o . o # O ;.;.;.;.;.;.;.;.;.;.",
";.;.;.;.;.;.;.;.;.;.;.o + o o o o o . o . o o o . o o o . o . o o . o o . . o o . o o o . o . o o o O + O ;.;.;.;.;.;.;.;.;.;.;.",
";.;.;.;.;.;.;.;.;.;.;.;.o X +   . X o . o . . o . . . . . o . . . o . . . . . . o . . . . o o o . + . o ;.;.;.;.;.;.;.;.;.;.;.;.",
";.;.;.;.;.;.;.;.;.;.;.;.;.;.o X O   . .   o   . . . . . o . . . . . . o . . . . . . . . . . . X + . ;.;.;.;.;.;.;.;.;.;.;.;.;.;.",
";.;.;.;.;.;.;.;.;.;.;.;.;.;.;.O O X X .   . . . . . . . . . . . . . . . . . . . . . . X . O X . o ;.;.;.;.;.;.;.;.;.;.;.;.;.;.;.",
";.;.;.;.;.;.;.;.;.;.;.;.;.;.;.;.;.. . + X   . . . . .       . . . . .   .   . .   .   X + . . ;.;.;.;.;.;.;.;.;.;.;.;.;.;.;.;.;.",
";.;.;.;.;.;.;.;.;.;.;.;.;.;.;.;.;.;.;.. X + X X . .   .                 . .   . X + X . o ;.;.;.;.;.;.;.;.;.;.;.;.;.;.;.;.;.;.;.",
";.;.;.;.;.;.;.;.;.;.;.;.;.;.;.;.;.;.;.;.;.;.    X X . .                   X . O     ;.;.;.;.;.;.;.;.;.;.;.;.;.;.;.;.;.;.;.;.;.;.",
";.;.;.;.;.;.;.;.;.;.;.;.;.;.;.;.;.;.;.;.;.;.;.;.;.                            ;.;.;.;.;.;.;.;.;.;.;.;.;.;.;.;.;.;.;.;.;.;.;.;.;."
};
