/* XPM */
static char *_6da8d8d41704a72b6f37e2fc5e7444c[] = {
/* columns rows colors chars-per-pixel */
"16 16 73 1 ",
"  c #F6A925",
". c #F7A925",
"X c #F5A826",
"o c #F5A926",
"O c #F6A926",
"+ c #F7A926",
"@ c #F5AA26",
"# c #F7AA26",
"$ c #F6AA27",
"% c #F7AB27",
"& c #F6AC29",
"* c #F6AD29",
"= c #F7AD2A",
"- c #F6AF2B",
"; c #F7AF2B",
": c #F7AF2C",
"> c #F6B02C",
", c #F7B02C",
"< c #F7B22E",
"1 c #F7B32E",
"2 c #F7B42F",
"3 c #F8B02C",
"4 c #F8B12D",
"5 c #F8B32E",
"6 c #F8B42E",
"7 c #F7B531",
"8 c #F7B632",
"9 c #F8B631",
"0 c #F9B632",
"q c #F7B833",
"w c #F8B833",
"e c #F8B933",
"r c #F8BB36",
"t c #F9BC36",
"y c #F8BC37",
"u c #F9BD37",
"i c #F8BE38",
"p c #F9C03A",
"a c #F9C13B",
"s c #FAC03B",
"d c #F9C33C",
"f c #FAC33C",
"g c #FAC43D",
"h c #F9C53E",
"j c #FAC53F",
"k c #FAC63E",
"l c #FAC941",
"z c #FACA42",
"x c #FACB43",
"c c #FCCB42",
"v c #FACC44",
"b c #FBCD45",
"n c #FBCF47",
"m c #FCCE47",
"M c #FCCF47",
"N c #FAD249",
"B c #FBD249",
"V c #FBD14A",
"C c #3954FC",
"Z c #5B67E8",
"A c #4065FF",
"S c #727BE2",
"D c #5D8BFF",
"F c #7181EE",
"G c #969CDD",
"H c #838AE0",
"J c #83B9FF",
"K c #CFCFDB",
"L c gray84",
"P c #D7D7D7",
"I c #D8D8D8",
"U c gray85",
"Y c None",
/* pixels */
"YYYYYBBBYYYYYYYY",
"YYYmnmnYYYYYYYYY",
"YYbxvYYYYYYYYYYY",
"YlxxxYYYYYYUUUUY",
"YjhjYYYYYYUHZLYY",
"jfjsYYYYULUGSLYY",
"isssYYYULULUUYYY",
"uuuiYYYCUUUUYYYY",
"ruriYYYAFKUYYYYY",
"wq0qYYJDYYYYYYYY",
"08w00YYYYYYYYYY8",
"Y6>6>6YYYYYYYY2Y",
"Y>*>;;;>YYYY:33Y",
"YY%**%********YY",
"YYY%%XXXXXX%%YYY",
"YYYYY%.%%XXYYYYY"
};
